<svg xmlns="http://www.w3.org/2000/svg" viewBox="0 0 64 64" fill="none" aria-label="Vaishnava Urdhva Pundra Tilak">
  <defs>
    <linearGradient id="chandanClay" x1="24" y1="8" x2="40" y2="48" gradientUnits="userSpaceOnUse">
      <stop offset="0%" stop-color="#FEF08A"/>
      <stop offset="50%" stop-color="#FDE68A"/>
      <stop offset="100%" stop-color="#F59E0B"/>
    </linearGradient>
  </defs>
  <!-- Two Vertical Parallel Lines (Temple of Radha Krishna) -->
  <path d="M26 10V40C26 44 28 46 32 46C36 46 38 44 38 40V10C38 8 36 8 36 10V38C36 41 34 43 32 43C30 43 28 41 28 38V10C28 8 26 8 26 10Z" fill="url(#chandanClay)"/>
  <!-- Central Red Line / Radha-kund clay or Kumkum line (Lakshmi/Radha) -->
  <line x1="32" y1="14" x2="32" y2="42" stroke="#DC2626" stroke-width="2" stroke-linecap="round"/>
  <!-- Tulasi Leaf Base on the Bridge of the Nose -->
  <path d="M32 46C26 50 26 56 32 60C38 56 38 50 32 46Z" fill="#059669"/>
  <path d="M32 48V58" stroke="#10B981" stroke-width="1.2" stroke-linecap="round"/>
</svg>
